<mxfile host="app.diagrams.net" agent="Mozilla/5.0 (Windows NT 10.0; Win64; x64) AppleWebKit/537.36 (KHTML, like Gecko) Chrome/131.0.0.0 Safari/537.36 Edg/131.0.0.0" version="25.0.3">
  <diagram name="第 1 页" id="w9s7e6-MdJkUKWHXiI3m">
    <mxGraphModel dx="1213" dy="768" grid="1" gridSize="10" guides="1" tooltips="1" connect="1" arrows="1" fold="1" page="1" pageScale="1" pageWidth="827" pageHeight="1169" math="0" shadow="0">
      <root>
        <mxCell id="0" />
        <mxCell id="1" parent="0" />
        <mxCell id="qo8-DKv4Xhy0Se29s8rM-15" style="edgeStyle=orthogonalEdgeStyle;rounded=0;orthogonalLoop=1;jettySize=auto;html=1;exitX=1;exitY=0.5;exitDx=0;exitDy=0;" edge="1" parent="1" source="qo8-DKv4Xhy0Se29s8rM-3" target="qo8-DKv4Xhy0Se29s8rM-5">
          <mxGeometry relative="1" as="geometry" />
        </mxCell>
        <mxCell id="qo8-DKv4Xhy0Se29s8rM-3" value="&lt;font style=&quot;font-size: 18px;&quot;&gt;输入&lt;/font&gt;&lt;div&gt;&lt;font style=&quot;font-size: 18px;&quot;&gt;视频&lt;/font&gt;&lt;/div&gt;" style="rounded=1;whiteSpace=wrap;html=1;fillColor=#dae8fc;strokeColor=#6c8ebf;fontStyle=1;shadow=1;" vertex="1" parent="1">
          <mxGeometry x="91" y="300" width="60" height="60" as="geometry" />
        </mxCell>
        <mxCell id="qo8-DKv4Xhy0Se29s8rM-5" value="&lt;font style=&quot;font-size: 18px;&quot;&gt;新生儿视频&lt;/font&gt;&lt;div&gt;&lt;font style=&quot;font-size: 18px;&quot;&gt;样本帧序列&lt;/font&gt;&lt;/div&gt;&lt;div&gt;&lt;font face=&quot;Times New Roman&quot; style=&quot;&quot;&gt;&lt;span style=&quot;font-size: 18px;&quot;&gt;I&lt;/span&gt;&lt;font style=&quot;font-size: 10px;&quot;&gt;1&lt;/font&gt;&lt;/font&gt;&lt;font style=&quot;background-color: initial;&quot; face=&quot;Times New Roman&quot;&gt;&lt;font style=&quot;font-size: 18px;&quot;&gt;...&lt;/font&gt;&lt;/font&gt;&lt;span style=&quot;background-color: initial; font-family: &amp;quot;Times New Roman&amp;quot;; font-size: 18px;&quot;&gt;I&lt;/span&gt;&lt;font style=&quot;background-color: initial; font-family: &amp;quot;Times New Roman&amp;quot;; font-size: 10px;&quot;&gt;t&lt;/font&gt;&lt;font style=&quot;background-color: initial;&quot; face=&quot;Times New Roman&quot;&gt;&lt;font style=&quot;font-size: 18px;&quot;&gt;...&lt;/font&gt;&lt;/font&gt;&lt;span style=&quot;background-color: initial; font-family: &amp;quot;Times New Roman&amp;quot;; font-size: 18px;&quot;&gt;I&lt;/span&gt;&lt;font style=&quot;background-color: initial; font-family: &amp;quot;Times New Roman&amp;quot;; font-size: 10px;&quot;&gt;T&lt;/font&gt;&lt;/div&gt;" style="rounded=1;whiteSpace=wrap;html=1;fillColor=#dae8fc;strokeColor=#6c8ebf;fontStyle=1;shadow=1;glass=0;" vertex="1" parent="1">
          <mxGeometry x="221" y="285" width="120" height="90" as="geometry" />
        </mxCell>
        <mxCell id="qo8-DKv4Xhy0Se29s8rM-10" value="视频" style="rounded=0;whiteSpace=wrap;html=1;opacity=0;fontSize=14;" vertex="1" parent="1">
          <mxGeometry x="151" y="310" width="70" height="20" as="geometry" />
        </mxCell>
        <mxCell id="qo8-DKv4Xhy0Se29s8rM-13" value="帧提取" style="rounded=0;whiteSpace=wrap;html=1;fontSize=14;opacity=0;" vertex="1" parent="1">
          <mxGeometry x="156" y="330" width="60" height="20" as="geometry" />
        </mxCell>
        <mxCell id="qo8-DKv4Xhy0Se29s8rM-16" value="" style="strokeWidth=2;html=1;shape=mxgraph.flowchart.annotation_2;align=left;labelPosition=right;pointerEvents=1;verticalAlign=middle;fontSize=6;" vertex="1" parent="1">
          <mxGeometry x="341" y="280" width="50" height="100" as="geometry" />
        </mxCell>
        <mxCell id="qo8-DKv4Xhy0Se29s8rM-32" value="" style="edgeStyle=orthogonalEdgeStyle;rounded=0;orthogonalLoop=1;jettySize=auto;html=1;" edge="1" parent="1" source="qo8-DKv4Xhy0Se29s8rM-18" target="qo8-DKv4Xhy0Se29s8rM-31">
          <mxGeometry relative="1" as="geometry" />
        </mxCell>
        <mxCell id="qo8-DKv4Xhy0Se29s8rM-18" value="&lt;b&gt;&lt;font style=&quot;font-size: 18px;&quot;&gt;面部疼痛信息提取&lt;/font&gt;&lt;/b&gt;&lt;div&gt;&lt;b&gt;&lt;font style=&quot;font-size: 18px;&quot;&gt;&lt;br&gt;&lt;/font&gt;&lt;/b&gt;&lt;/div&gt;&lt;div&gt;&lt;b&gt;&lt;font style=&quot;font-size: 18px;&quot;&gt;&lt;br&gt;&lt;/font&gt;&lt;/b&gt;&lt;/div&gt;" style="rounded=1;whiteSpace=wrap;html=1;fillColor=#dae8fc;strokeColor=#6c8ebf;" vertex="1" parent="1">
          <mxGeometry x="391" y="240" width="230" height="80" as="geometry" />
        </mxCell>
        <mxCell id="qo8-DKv4Xhy0Se29s8rM-33" value="" style="edgeStyle=orthogonalEdgeStyle;rounded=0;orthogonalLoop=1;jettySize=auto;html=1;" edge="1" parent="1" source="qo8-DKv4Xhy0Se29s8rM-19" target="qo8-DKv4Xhy0Se29s8rM-31">
          <mxGeometry relative="1" as="geometry" />
        </mxCell>
        <mxCell id="qo8-DKv4Xhy0Se29s8rM-19" value="&lt;b&gt;&lt;font style=&quot;font-size: 18px;&quot;&gt;身体疼痛信息提取&lt;/font&gt;&lt;/b&gt;&lt;div&gt;&lt;b&gt;&lt;font style=&quot;font-size: 18px;&quot;&gt;&lt;br&gt;&lt;/font&gt;&lt;/b&gt;&lt;/div&gt;&lt;div&gt;&lt;b&gt;&lt;font style=&quot;font-size: 18px;&quot;&gt;&lt;br&gt;&lt;/font&gt;&lt;/b&gt;&lt;/div&gt;" style="rounded=1;whiteSpace=wrap;html=1;fillColor=#dae8fc;strokeColor=#6c8ebf;" vertex="1" parent="1">
          <mxGeometry x="391" y="340" width="230" height="80" as="geometry" />
        </mxCell>
        <mxCell id="qo8-DKv4Xhy0Se29s8rM-22" value="" style="edgeStyle=orthogonalEdgeStyle;rounded=0;orthogonalLoop=1;jettySize=auto;html=1;" edge="1" parent="1" source="qo8-DKv4Xhy0Se29s8rM-20" target="qo8-DKv4Xhy0Se29s8rM-21">
          <mxGeometry relative="1" as="geometry" />
        </mxCell>
        <mxCell id="qo8-DKv4Xhy0Se29s8rM-20" value="&lt;font style=&quot;font-size: 14px;&quot;&gt;&lt;b&gt;面部关键点检测&lt;/b&gt;&lt;/font&gt;" style="rounded=0;whiteSpace=wrap;html=1;fillColor=#76608a;fontColor=#ffffff;strokeColor=#432D57;" vertex="1" parent="1">
          <mxGeometry x="421" y="273" width="70" height="40" as="geometry" />
        </mxCell>
        <mxCell id="qo8-DKv4Xhy0Se29s8rM-21" value="&lt;font style=&quot;font-size: 14px;&quot;&gt;&lt;b&gt;特征提取&lt;/b&gt;&lt;/font&gt;" style="rounded=0;whiteSpace=wrap;html=1;fillColor=#76608a;fontColor=#ffffff;strokeColor=#432D57;" vertex="1" parent="1">
          <mxGeometry x="521" y="273" width="70" height="40" as="geometry" />
        </mxCell>
        <mxCell id="qo8-DKv4Xhy0Se29s8rM-25" value="" style="edgeStyle=orthogonalEdgeStyle;rounded=0;orthogonalLoop=1;jettySize=auto;html=1;" edge="1" parent="1" source="qo8-DKv4Xhy0Se29s8rM-23" target="qo8-DKv4Xhy0Se29s8rM-24">
          <mxGeometry relative="1" as="geometry" />
        </mxCell>
        <mxCell id="qo8-DKv4Xhy0Se29s8rM-23" value="&lt;font style=&quot;font-size: 14px;&quot;&gt;&lt;b&gt;姿态估计&lt;/b&gt;&lt;/font&gt;" style="rounded=0;whiteSpace=wrap;html=1;fillColor=#76608a;fontColor=#ffffff;strokeColor=#432D57;" vertex="1" parent="1">
          <mxGeometry x="411" y="373" width="80" height="40" as="geometry" />
        </mxCell>
        <mxCell id="qo8-DKv4Xhy0Se29s8rM-24" value="&lt;font style=&quot;font-size: 14px;&quot;&gt;&lt;b&gt;序列数据&lt;/b&gt;&lt;/font&gt;&lt;div&gt;&lt;font style=&quot;font-size: 14px;&quot;&gt;&lt;b&gt;处理网络&lt;/b&gt;&lt;/font&gt;&lt;/div&gt;" style="rounded=0;whiteSpace=wrap;html=1;fillColor=#76608a;fontColor=#ffffff;strokeColor=#432D57;" vertex="1" parent="1">
          <mxGeometry x="521" y="373" width="70" height="40" as="geometry" />
        </mxCell>
        <mxCell id="qo8-DKv4Xhy0Se29s8rM-35" value="" style="edgeStyle=orthogonalEdgeStyle;rounded=0;orthogonalLoop=1;jettySize=auto;html=1;" edge="1" parent="1" source="qo8-DKv4Xhy0Se29s8rM-31" target="qo8-DKv4Xhy0Se29s8rM-34">
          <mxGeometry relative="1" as="geometry" />
        </mxCell>
        <mxCell id="qo8-DKv4Xhy0Se29s8rM-31" value="&lt;span&gt;关键帧感知&lt;/span&gt;&lt;div&gt;&lt;span&gt;的时间卷积&lt;/span&gt;&lt;/div&gt;" style="rounded=1;whiteSpace=wrap;html=1;fillColor=#dae8fc;strokeColor=#6c8ebf;fontStyle=1;fontFamily=Helvetica;fontSize=18;" vertex="1" parent="1">
          <mxGeometry x="690" y="283" width="120" height="90" as="geometry" />
        </mxCell>
        <mxCell id="qo8-DKv4Xhy0Se29s8rM-37" value="" style="edgeStyle=orthogonalEdgeStyle;rounded=0;orthogonalLoop=1;jettySize=auto;html=1;" edge="1" parent="1" source="qo8-DKv4Xhy0Se29s8rM-34" target="qo8-DKv4Xhy0Se29s8rM-36">
          <mxGeometry relative="1" as="geometry" />
        </mxCell>
        <mxCell id="qo8-DKv4Xhy0Se29s8rM-34" value="&lt;span&gt;智能数据&lt;/span&gt;&lt;div&gt;&lt;span&gt;标注框架&lt;/span&gt;&lt;/div&gt;" style="whiteSpace=wrap;html=1;fontSize=18;fillColor=#dae8fc;strokeColor=#6c8ebf;rounded=1;fontStyle=1;fontFamily=Helvetica;" vertex="1" parent="1">
          <mxGeometry x="840" y="298" width="120" height="60" as="geometry" />
        </mxCell>
        <mxCell id="qo8-DKv4Xhy0Se29s8rM-36" value="输出&lt;div&gt;标注结果&lt;/div&gt;" style="whiteSpace=wrap;html=1;fontSize=18;fillColor=#dae8fc;strokeColor=#6c8ebf;rounded=1;fontStyle=1;" vertex="1" parent="1">
          <mxGeometry x="990" y="298" width="120" height="60" as="geometry" />
        </mxCell>
      </root>
    </mxGraphModel>
  </diagram>
</mxfile>
